<?xml version="1.0" encoding="UTF-8"?>
<svg width="400px" height="400px" viewBox="0 0 400 400" version="1.1" xmlns="http://www.w3.org/2000/svg" xmlns:xlink="http://www.w3.org/1999/xlink">
    <!-- Generator: Sketch 55.2 (78181) - https://sketchapp.com -->
    <title>shutterstock_257397034</title>
    <desc>Created with Sketch.</desc>
    <defs>
        <path d="M13.81,19.225 C15.043,13.181 13.046,5.425 9.349,1.901 C5.652,-1.623 1.655,0.42 0.421,6.464 C-0.813,12.508 1.185,20.264 4.882,23.787 C8.579,27.311 12.576,25.268 13.81,19.225" id="path-1"></path>
    </defs>
    <g id="shutterstock_257397034" stroke="none" stroke-width="1" fill="none" fill-rule="evenodd">
        <polyline id="Fill-4" fill="#517396" points="165.925 366.618 250.251 365.967 310.329 336.003 339.14 334.829 372.556 318.95 352.264 309.784 358.641 258.255 275.972 254.199 165.925 298.841 165.925 366.618"></polyline>
        <polyline id="Fill-5" fill="#C04D5E" points="76.173 215.138 94.282 206.181 86.183 202.551 76.173 215.138"></polyline>
        <polyline id="Fill-6" fill="#ECEEE5" points="85.034 314.077 165.925 366.618 173.757 298.841 165.925 233.741 125.479 161.159 85.034 200.892 85.034 314.077"></polyline>
        <polyline id="Fill-7" fill="#C5C3BB" points="165.925 366.618 278.945 313.885 278.945 200.892 165.925 231.105 165.925 366.618"></polyline>
        <polyline id="Fill-8" fill="#FC727D" points="125.479 154.196 184.078 267.137 290.317 211.955 229.852 115.752 125.479 154.196"></polyline>
        <polyline id="Fill-9" fill="#FE8B8C" points="125.479 154.196 76.173 208.393 76.173 215.138 126.067 164.927 184.078 267.137 184.078 258.907 125.479 154.196"></polyline>
        <polyline id="Fill-10" fill="#C04D5E" points="184.078 258.907 290.317 211.955 290.317 218.236 184.078 267.137 184.078 258.907"></polyline>
        <polyline id="Fill-11" fill="#C04D5E" points="85.034 210.755 126.956 166.47 124.626 162.39 76.173 215.138 85.034 210.755"></polyline>
        <polyline id="Fill-12" fill="#C5C3BB" points="85.034 210.755 85.034 218.293 89.752 223.397 134.11 178.995 126.956 166.47 85.034 210.755"></polyline>
        <polyline id="Fill-13" fill="#73A9BF" points="143.234 316.941 104.929 292.545 104.929 243.753 143.234 268.149 143.234 316.941"></polyline>
        <polyline id="Fill-14" fill="#639FB8" points="210.847 314.593 185.918 325.88 185.918 277.088 210.847 266.215 210.847 314.593"></polyline>
        <polyline id="Fill-15" fill="#A76967" points="260.385 316.05 235.456 328.005 235.456 255.9 260.385 245.145 260.385 316.05"></polyline>
        <polyline id="Fill-16" fill="#639FB8" points="254.355 290.872 241.486 296.899 241.486 260.55 254.355 255.128 254.355 290.872"></polyline>
        <polyline id="Fill-17" fill="#C5C3BB" points="104.929 292.545 108.525 292.136 109.572 290.712 109.572 246.71 104.929 243.753 104.929 292.545"></polyline>
        <polyline id="Fill-18" fill="#FAFAF8" points="109.572 290.712 143.234 312.131 143.234 316.941 104.929 292.545 109.572 290.712"></polyline>
        <polyline id="Fill-19" fill="#ECEEE5" points="119.437 297.028 119.437 252.73 122.286 254.363 122.286 298.841 119.437 297.028"></polyline>
        <polyline id="Fill-20" fill="#ECEEE5" points="132.325 305.27 132.325 260.855 135.174 262.632 135.174 307.083 132.325 305.27"></polyline>
        <path d="M134.81,215.225 C136.043,209.181 134.046,201.425 130.349,197.901 C126.652,194.377 122.655,196.42 121.421,202.464 C120.187,208.508 122.185,216.264 125.882,219.787 C129.579,223.311 133.576,221.268 134.81,215.225" id="Fill-21" fill="#C5C3BB"></path>
        <g id="Group-24" transform="translate(121.000000, 196.000000)">
            <mask id="mask-2" fill="white">
                <use xlink:href="#path-1"></use>
            </mask>
            <g id="Clip-23"></g>
            <path d="M17.05,17.675 C18.283,11.631 16.286,3.875 12.589,0.351 C8.891,-3.173 4.894,-1.13 3.661,4.914 C2.427,10.958 4.424,18.714 8.122,22.237 C11.819,25.761 15.816,23.718 17.05,17.675" id="Fill-22" fill="#73A9BF" mask="url(#mask-2)"></path>
        </g>
        <polyline id="Fill-25" fill="#D6D5CF" points="235.456 328.005 257.84 340.87 283.942 325.658 260.385 316.05 235.456 328.005"></polyline>
        <polyline id="Fill-26" fill="#C5C3BB" points="235.456 328.005 235.456 334.176 257.84 345.304 257.84 338.722 235.456 328.005"></polyline>
        <polyline id="Fill-27" fill="#BAB2AF" points="257.84 345.304 283.942 332.149 283.942 325.658 257.84 338.722 257.84 345.304"></polyline>
        <polyline id="Fill-28" fill="#D7D5CF" points="210.847 314.593 207.094 312.111 185.918 321.461 185.918 325.88 210.847 314.593"></polyline>
        <polyline id="Fill-29" fill="#D7D5CF" points="207.094 312.111 207.094 267.852 210.847 266.215 210.847 314.593 207.094 312.111"></polyline>
        <polyline id="Fill-30" fill="#D7D5CF" points="185.918 293.314 207.094 283.755 207.094 287.138 185.918 297.149 185.918 293.314"></polyline>
        <polyline id="Fill-31" fill="#A76967" points="283.942 261.026 280.92 259.53 278.804 301.487 280.92 327.171 283.942 325.658 283.942 261.026"></polyline>
        <polyline id="Fill-32" fill="#D7D5CF" points="196.506 291.245 196.506 318.188 193.845 319.602 193.845 291.795 196.506 291.245"></polyline>
        <polyline id="Fill-33" fill="#B9876F" points="280.92 327.171 277.341 325.955 277.341 255.262 280.92 258.915 280.92 327.171"></polyline>
        <polyline id="Fill-34" fill="#A76967" points="260.855 272.577 257.832 271.081 256.043 308.762 257.832 338.722 260.855 337.21 260.855 272.577"></polyline>
        <polyline id="Fill-35" fill="#B9876F" points="257.832 338.722 254.254 337.006 254.254 266.813 257.832 270.466 257.832 338.722"></polyline>
        <polyline id="Fill-36" fill="#FE8B8C" points="245.795 231.631 275.972 248.339 255.02 281.836 224.867 260.855 245.795 231.631"></polyline>
        <polyline id="Fill-37" fill="#C04D5E" points="275.972 248.339 255.02 276.767 255.02 281.836 275.972 254.199 290.317 265.689 290.317 260.855 275.972 248.339"></polyline>
        <polyline id="Fill-38" fill="#A76967" points="290.317 265.689 272.669 258.556 275.972 254.199 290.317 265.689"></polyline>
        <polyline id="Fill-39" fill="#ECEEE5" points="131.033 152.15 133.117 155.703 135.613 115.752 133.117 73.046 128.115 71.388 128.115 153.225 131.033 152.15"></polyline>
        <polyline id="Fill-40" fill="#C5C3BB" points="133.117 73.046 133.117 155.703 138.11 153.625 138.11 71.388 133.117 73.046"></polyline>
        <polyline id="Fill-41" fill="#ECEEE5" points="128.115 71.388 132.741 69.588 138.11 71.388 133.117 73.046 128.115 71.388"></polyline>
        <polyline id="Fill-42" fill="#FEE693" points="138.11 133.027 272.669 83.022 259.843 63.138 272.669 28.515 138.11 73.491 138.11 133.027"></polyline>
        <polyline id="Fill-43" fill="#C04D5E" points="214.393 189.226 231.68 197.938 249.892 189.559 238.114 176.722 214.393 166.47 214.393 189.226"></polyline>
        <path d="M158.387,95.137 L161.921,93.892 C165.479,92.64 167.411,90.206 167.411,86.808 C167.411,83.41 165.479,82.907 161.921,84.13 L158.387,85.344 L158.387,95.137 Z M167.916,110.464 L162.153,100.052 L158.387,101.398 L158.387,113.972 L151.49,116.51 L151.49,81.417 L162.477,77.699 C168.832,75.549 173.987,76.339 173.987,84.522 C173.987,89.591 171.894,93.555 168.694,96.334 L175.438,107.695 L167.916,110.464 L167.916,110.464 Z" id="Fill-44" fill="#517396"></path>
        <polyline id="Fill-45" fill="#517396" points="179.874 71.812 197.925 65.704 197.925 72.116 186.443 76.066 186.443 82.909 196.224 79.486 196.224 85.855 186.443 89.333 186.443 97.167 198.359 92.848 198.359 99.258 179.874 106.062 179.874 71.812"></polyline>
        <path d="M204,63.648 L210.468,61.459 L217.663,75.488 L220.348,81.836 L220.515,81.776 C220.264,78.371 219.761,73.884 219.761,69.979 L219.761,58.314 L225.595,56.34 L225.595,89.232 L219.301,91.549 L212.127,77.595 L209.403,71.289 L209.232,71.348 C209.488,74.945 210,79.217 210,83.155 L210,94.973 L204,97.181 L204,63.648" id="Fill-46" fill="#517396"></path>
        <polyline id="Fill-47" fill="#517396" points="237.137 58.625 229.822 61.142 229.822 54.91 250.251 47.996 250.251 54.113 243.111 56.57 243.111 82.784 237.137 84.984 237.137 58.625"></polyline>
        <polyline id="Fill-48" fill="#ECEEE5" points="201.78 166.47 214.393 189.226 227.552 154.196 201.78 152.939 201.78 166.47"></polyline>
        <polyline id="Fill-49" fill="#C5C3BB" points="214.393 189.226 227.552 182.897 227.552 154.196 214.393 159.062 214.393 189.226"></polyline>
        <polyline id="Fill-50" fill="#FAFAF8" points="201.78 152.939 214.393 148.38 227.552 154.196 214.393 159.062 201.78 152.939"></polyline>
        <polyline id="Fill-51" fill="#FC727D" points="224.867 260.855 224.867 265.844 255.02 281.836 255.02 276.767 224.867 260.855"></polyline>
        <polyline id="Fill-52" fill="#3B828F" points="144.518 352.714 125.479 357.965 119.437 330.37 141.932 327.171 144.518 352.714"></polyline>
        <polyline id="Fill-53" fill="#42B29B" points="91.57 310.94 91.57 335.133 125.479 357.965 125.479 329.16 91.57 310.94"></polyline>
        <polyline id="Fill-54" fill="#4FC7A5" points="91.57 310.94 106.315 304.533 141.932 327.171 125.479 333.274 91.57 310.94"></polyline>
        <polyline id="Fill-55" fill="#517396" points="125.479 357.965 151.835 357.467 141.932 351.035 125.479 357.965"></polyline>
        <polyline id="Fill-56" fill="#BBBAB5" points="141.932 327.171 141.932 351.035 151.835 357.467 151.835 342.568 141.932 327.171"></polyline>
        <polyline id="Fill-57" fill="#A29F92" points="208.437 153.343 214.534 151.139 220.894 153.951 214.534 156.303 208.437 153.343"></polyline>
        <polyline id="Fill-58" fill="#C04D5E" points="245.795 231.631 232.143 264.694 224.867 260.855 245.795 231.631"></polyline>
    </g>
</svg>