<?xml version="1.0" encoding="UTF-8"?>
<svg width="97px" height="21px" viewBox="0 0 97 21" version="1.1" xmlns="http://www.w3.org/2000/svg" xmlns:xlink="http://www.w3.org/1999/xlink">
    <!-- Generator: Sketch 55.2 (78181) - https://sketchapp.com -->
    <title>Avenue</title>
    <desc>Created with Sketch.</desc>
    <g id="Page-1" stroke="none" stroke-width="1" fill="none" fill-rule="evenodd">
        <path d="M15.5859375,20 L14.0410156,15.6660156 L5.5234375,15.6660156 L3.9921875,20 L0.615234375,20 L7.79296875,0.50390625 L11.7714844,0.50390625 L18.9492188,20 L15.5859375,20 Z M6.52148438,12.8632812 L13.0566406,12.8632812 L9.7890625,3.6484375 L6.52148438,12.8632812 Z M29.8730469,6.24609375 L33.2226562,6.24609375 L27.4941406,20 L24.7734375,20 L19.0859375,6.24609375 L22.421875,6.24609375 L26.1269531,16.390625 L29.8730469,6.24609375 Z M47.578125,12.890625 L47.5371094,13.6835938 L37.078125,13.6835938 C37.1328128,14.9961003 37.5338504,15.9986945 38.28125,16.6914062 C39.0286496,17.384118 39.9537705,17.7304688 41.0566406,17.7304688 C41.8222695,17.7304688 42.5035777,17.5436217 43.1005859,17.1699219 C43.6975941,16.7962221 44.1510401,16.2630243 44.4609375,15.5703125 L47.3320312,16.0625 C46.8580705,17.3841212 46.0651097,18.4140588 44.953125,19.1523438 C43.8411403,19.8906287 42.5514396,20.2597656 41.0839844,20.2597656 C38.9420466,20.2597656 37.2239648,19.6263084 35.9296875,18.359375 C34.6354102,17.0924416 33.9882812,15.3470163 33.9882812,13.1230469 C33.9882812,10.9081921 34.6354102,9.1627668 35.9296875,7.88671875 C37.2239648,6.6106707 38.9101459,5.97265625 40.9882812,5.97265625 C42.9661557,5.97265625 44.5566346,6.55826237 45.7597656,7.72949219 C46.9628966,8.900722 47.5690104,10.6210824 47.578125,12.890625 Z M41.0019531,8.31054688 C40.0084586,8.31054688 39.1813184,8.55891679 38.5205078,9.05566406 C37.8596972,9.55241134 37.4244802,10.3111928 37.2148438,11.3320312 L44.4199219,11.3320312 C44.3014317,10.3385367 43.936852,9.58659109 43.3261719,9.07617188 C42.7154917,8.56575266 41.9407599,8.31054688 41.0019531,8.31054688 Z M58.2421875,5.98632812 C59.7916744,5.98632812 61.0039019,6.3987589 61.8789062,7.22363281 C62.7539106,8.04850673 63.1914062,9.2219976 63.1914062,10.7441406 L63.1914062,20 L60.0195312,20 L60.0195312,11.4277344 C60.0195312,10.4524691 59.7666041,9.73014558 59.2607422,9.26074219 C58.7548803,8.7913388 58.1054727,8.55664062 57.3125,8.55664062 C56.3645786,8.55664062 55.5898468,8.84602575 54.9882812,9.42480469 C54.3867157,10.0035836 54.0813803,10.8945252 54.0722656,12.0976562 L54.0722656,20 L50.9277344,20 L50.9277344,6.24609375 L54.0722656,6.24609375 L54.0722656,7.87304688 C54.5371117,7.27148137 55.1272751,6.80664227 55.8427734,6.47851562 C56.5582718,6.15038898 57.3580685,5.98632812 58.2421875,5.98632812 Z M76.2070312,6.24609375 L79.3515625,6.24609375 L79.3515625,20 L76.3574219,20 L76.2753906,18.2773438 C75.30924,19.5989649 73.8964937,20.2597656 72.0371094,20.2597656 C70.4876225,20.2597656 69.275395,19.8473349 68.4003906,19.0224609 C67.5253862,18.197587 67.0878906,17.0240962 67.0878906,15.5019531 L67.0878906,6.24609375 L70.2597656,6.24609375 L70.2597656,14.8183594 C70.2597656,15.7936247 70.5126928,16.5159482 71.0185547,16.9853516 C71.5244166,17.454755 72.1783814,17.6894531 72.9804688,17.6894531 C73.9283902,17.6894531 74.7008434,17.400068 75.2978516,16.8212891 C75.8948598,16.2425101 76.1979166,15.3515685 76.2070312,14.1484375 L76.2070312,6.24609375 Z M96.2910156,12.890625 L96.25,13.6835938 L85.7910156,13.6835938 C85.8457034,14.9961003 86.2467411,15.9986945 86.9941406,16.6914062 C87.7415402,17.384118 88.6666612,17.7304688 89.7695312,17.7304688 C90.5351601,17.7304688 91.2164684,17.5436217 91.8134766,17.1699219 C92.4104848,16.7962221 92.8639307,16.2630243 93.1738281,15.5703125 L96.0449219,16.0625 C95.5709612,17.3841212 94.7780004,18.4140588 93.6660156,19.1523438 C92.5540309,19.8906287 91.2643303,20.2597656 89.796875,20.2597656 C87.6549372,20.2597656 85.9368554,19.6263084 84.6425781,18.359375 C83.3483008,17.0924416 82.7011719,15.3470163 82.7011719,13.1230469 C82.7011719,10.9081921 83.3483008,9.1627668 84.6425781,7.88671875 C85.9368554,6.6106707 87.6230365,5.97265625 89.7011719,5.97265625 C91.6790463,5.97265625 93.2695252,6.55826237 94.4726562,7.72949219 C95.6757873,8.900722 96.281901,10.6210824 96.2910156,12.890625 Z M89.7148438,8.31054688 C88.7213492,8.31054688 87.894209,8.55891679 87.2333984,9.05566406 C86.5725878,9.55241134 86.1373708,10.3111928 85.9277344,11.3320312 L93.1328125,11.3320312 C93.0143223,10.3385367 92.6497426,9.58659109 92.0390625,9.07617188 C91.4283824,8.56575266 90.6536505,8.31054688 89.7148438,8.31054688 Z" id="Avenue" fill="#FFFFFF" fill-rule="nonzero"></path>
    </g>
</svg>