<?xml version="1.0" encoding="UTF-8"?>
<svg width="130px" height="29px" viewBox="0 0 130 29" version="1.1" xmlns="http://www.w3.org/2000/svg" xmlns:xlink="http://www.w3.org/1999/xlink">
    <!-- Generator: Sketch 55.2 (78181) - https://sketchapp.com -->
    <title>Group 2</title>
    <desc>Created with Sketch.</desc>
    <g id="Page-1" stroke="none" stroke-width="1" fill="none" fill-rule="evenodd">
        <g id="Group-2" transform="translate(0.000000, -4.000000)">
            <g id="Group" transform="translate(0.500000, 0.875000)">
                <path d="M49.1967773,27 L47.6656494,22.7047119 L39.2241211,22.7047119 L37.706543,27 L34.3597412,27 L41.4733887,7.67797852 L45.4163818,7.67797852 L52.5300293,27 L49.1967773,27 Z M40.2132568,19.927002 L46.6900635,19.927002 L43.4516602,10.7944336 L40.2132568,19.927002 Z M63.3563232,13.3688965 L66.6760254,13.3688965 L60.9986572,27 L58.3022461,27 L52.6655273,13.3688965 L55.9716797,13.3688965 L59.6436768,23.4228516 L63.3563232,13.3688965 Z M80.9033203,19.9541016 L80.8626709,20.7399902 L70.4970703,20.7399902 C70.5512698,22.040778 70.9487268,23.0344204 71.6894531,23.7209473 C72.4301795,24.4074741 73.3470404,24.7507324 74.4400635,24.7507324 C75.1988563,24.7507324 75.8740815,24.5655536 76.4657593,24.1951904 C77.057437,23.8248272 77.5068344,23.2963902 77.8139648,22.6098633 L80.6594238,23.0976562 C80.1896949,24.4074773 79.4038141,25.428219 78.3017578,26.1599121 C77.1997015,26.8916052 75.9215161,27.2574463 74.4671631,27.2574463 C72.3443497,27.2574463 70.641608,26.6296449 69.3588867,25.3740234 C68.0761655,24.1184019 67.4348145,22.3885608 67.4348145,20.1844482 C67.4348145,17.9893689 68.0761655,16.2595278 69.3588867,14.994873 C70.641608,13.7302183 72.3127338,13.0979004 74.3723145,13.0979004 C76.3325293,13.0979004 77.9088075,13.6782779 79.1011963,14.8390503 C80.2935851,15.9998227 80.8942871,17.7048227 80.9033203,19.9541016 Z M74.3858643,15.414917 C73.4012402,15.414917 72.5814852,15.6610693 71.9265747,16.1533813 C71.2716642,16.6456934 70.8403331,17.3977 70.6325684,18.4094238 L77.7733154,18.4094238 C77.6558832,17.4247998 77.2945587,16.679568 76.6893311,16.1737061 C76.0841034,15.6678442 75.3162888,15.414917 74.3858643,15.414917 Z M91.472168,13.1114502 C93.0078202,13.1114502 94.2092242,13.5201985 95.076416,14.3377075 C95.9436079,15.1552165 96.3771973,16.3182298 96.3771973,17.8267822 L96.3771973,27 L93.2336426,27 L93.2336426,18.5042725 C93.2336426,17.5377149 92.9829737,16.8218407 92.4816284,16.3566284 C91.9802831,15.8914161 91.3366739,15.6588135 90.5507812,15.6588135 C89.6113234,15.6588135 88.8435088,15.9456148 88.2473145,16.5192261 C87.6511201,17.0928373 87.3485108,17.9758241 87.3394775,19.1682129 L87.3394775,27 L84.2230225,27 L84.2230225,13.3688965 L87.3394775,13.3688965 L87.3394775,14.9813232 C87.8001732,14.3851289 88.3850673,13.9244401 89.0941772,13.5992432 C89.8032872,13.2740462 90.5959429,13.1114502 91.472168,13.1114502 Z M109.276611,13.3688965 L112.393066,13.3688965 L112.393066,27 L109.425659,27 L109.34436,25.2927246 C108.386836,26.6025456 106.986704,27.2574463 105.143921,27.2574463 C103.608269,27.2574463 102.406865,26.8486979 101.539673,26.031189 C100.672481,25.21368 100.238892,24.0506667 100.238892,22.5421143 L100.238892,13.3688965 L103.382446,13.3688965 L103.382446,21.864624 C103.382446,22.8311816 103.633115,23.5470558 104.13446,24.0122681 C104.635806,24.4774804 105.283932,24.710083 106.078857,24.710083 C107.018315,24.710083 107.783872,24.4232817 108.375549,23.8496704 C108.967227,23.2760591 109.267578,22.3930724 109.276611,21.2006836 L109.276611,13.3688965 Z M129.181274,19.9541016 L129.140625,20.7399902 L118.775024,20.7399902 C118.829224,22.040778 119.226681,23.0344204 119.967407,23.7209473 C120.708134,24.4074741 121.624995,24.7507324 122.718018,24.7507324 C123.47681,24.7507324 124.152036,24.5655536 124.743713,24.1951904 C125.335391,23.8248272 125.784789,23.2963902 126.091919,22.6098633 L128.937378,23.0976562 C128.467649,24.4074773 127.681768,25.428219 126.579712,26.1599121 C125.477656,26.8916052 124.19947,27.2574463 122.745117,27.2574463 C120.622304,27.2574463 118.919562,26.6296449 117.636841,25.3740234 C116.35412,24.1184019 115.712769,22.3885608 115.712769,20.1844482 C115.712769,17.9893689 116.35412,16.2595278 117.636841,14.994873 C118.919562,13.7302183 120.590688,13.0979004 122.650269,13.0979004 C124.610483,13.0979004 126.186762,13.6782779 127.37915,14.8390503 C128.571539,15.9998227 129.172241,17.7048227 129.181274,19.9541016 Z M122.663818,15.414917 C121.679194,15.414917 120.859439,15.6610693 120.204529,16.1533813 C119.549618,16.6456934 119.118287,17.3977 118.910522,18.4094238 L126.05127,18.4094238 C125.933837,17.4247998 125.572513,16.679568 124.967285,16.1737061 C124.362058,15.6678442 123.594243,15.414917 122.663818,15.414917 Z" id="Avenue" fill="#FFFFFF" fill-rule="nonzero"></path>
                <path d="M26.25,31.875 C26.2334094,31.8420604 26.2154684,31.8099383 26.1986849,31.777143 L26.2161918,31.7769026 L13.6439869,3.375 L4.33087092,23.7859041 C8.19826598,21.6204031 11.163547,21.6315592 11.4193509,21.613767 L13.6439869,16.4462438 L17.0353666,24.3172653 C15.8550706,24.0117687 14.4013672,23.7859041 13.125,23.7859041 C7.37982836,23.7859041 2.40906172,27.0797181 0,31.875 L6.9099381,31.875 C8.5301745,30.3442471 10.7167099,29.4034253 13.125,29.4034253 C15.5114908,29.4034253 17.6794582,30.328138 19.2951612,31.8344627 L19.3083758,31.875 L19.3395796,31.8745672 C19.3397725,31.8747115 19.3399172,31.875 19.3400619,31.875 L26.25,31.875" id="Fill-1" fill="#19BBE0"></path>
            </g>
        </g>
    </g>
</svg>