<?xml version="1.0" encoding="UTF-8"?>
<svg width="92px" height="21px" viewBox="0 0 92 21" version="1.1" xmlns="http://www.w3.org/2000/svg" xmlns:xlink="http://www.w3.org/1999/xlink">
    <!-- Generator: Sketch 55.2 (78181) - https://sketchapp.com -->
    <title>Group 2</title>
    <desc>Created with Sketch.</desc>
    <g id="Page-1" stroke="none" stroke-width="1" fill="none" fill-rule="evenodd">
        <g id="Group-2" transform="translate(-260.000000, -79.000000)">
            <rect id="Rectangle" x="0" y="0" width="612" height="184"></rect>
            <g id="Group" transform="translate(260.000000, 79.000000)" fill="#FFFFFF" fill-rule="nonzero">
                <path d="M12.933,15.275 L5.103,15.275 L3.402,20 L0.324,20 L7.425,0.371 L10.638,0.371 L17.766,20 L14.607,20 L12.933,15.275 Z M12.069,12.737 L9.045,4.178 L5.994,12.737 L12.069,12.737 Z M31.077,6.743 L25.542,20 L22.707,20 L17.388,6.743 L20.466,6.743 L24.192,16.598 L28.107,6.743 L31.077,6.743 Z M44.874,14.492 L34.533,14.492 C34.6410005,15.6260057 35.0504964,16.4719972 35.7615,17.03 C36.4725036,17.5880028 37.3409949,17.867 38.367,17.867 C39.2310043,17.867 39.959997,17.6735019 40.554,17.2865 C41.148003,16.8994981 41.6159983,16.3640034 41.958,15.68 L44.361,16.652 C43.8569975,17.8400059 43.0695054,18.7534968 41.9985,19.3925 C40.9274946,20.0315032 39.7080068,20.351 38.34,20.351 C37.3679951,20.351 36.481504,20.1845017 35.6805,19.8515 C34.879496,19.5184983 34.1910029,19.0460031 33.615,18.434 C33.0389971,17.8219969 32.5935016,17.0885043 32.2785,16.2335 C31.9634984,15.3784957 31.806,14.4290052 31.806,13.385 C31.806,12.3589949 31.9634984,11.4140043 32.2785,10.55 C32.5935016,9.68599568 33.0389971,8.9435031 33.615,8.3225 C34.1910029,7.70149689 34.8839959,7.22000171 35.694,6.878 C36.5040041,6.53599829 37.4039951,6.365 38.394,6.365 C39.3660049,6.365 40.252496,6.53149834 41.0535,6.8645 C41.854504,7.19750167 42.5384972,7.66999694 43.1055,8.282 C43.6725028,8.89400306 44.1089985,9.62749572 44.415,10.4825 C44.7210015,11.3375043 44.874,12.2959947 44.874,13.358 L44.874,14.492 Z M41.958,12.44 C41.8859996,11.233994 41.5350032,10.3205031 40.905,9.6995 C40.2749969,9.0784969 39.4200054,8.768 38.34,8.768 C37.2599946,8.768 36.3915033,9.08299685 35.7345,9.713 C35.0774967,10.3430032 34.6860006,11.2519941 34.56,12.44 L41.958,12.44 Z M59.859,11.846 L59.859,20 L56.997,20 L56.997,12.413 C56.997,11.1169935 56.6910031,10.2170025 56.079,9.713 C55.4669969,9.20899748 54.7560041,8.957 53.946,8.957 C53.4779977,8.957 53.0370021,9.03349924 52.623,9.1865 C52.2089979,9.33950077 51.8445016,9.56899847 51.5295,9.875 C51.2144984,10.1810015 50.9670009,10.5589977 50.787,11.009 C50.6069991,11.4590023 50.517,11.980997 50.517,12.575 L50.517,20 L47.655,20 L47.655,6.743 L50.328,6.743 L50.436,8.282 C50.8140019,7.68799703 51.3629964,7.22000171 52.083,6.878 C52.8030036,6.53599829 53.6219954,6.365 54.54,6.365 C56.1780082,6.365 57.4739952,6.82849537 58.428,7.7555 C59.3820048,8.68250464 59.859,10.045991 59.859,11.846 Z M72.927,20 C72.8189995,19.5679978 72.7380003,19.0370032 72.684,18.407 C72.3059981,19.0370032 71.7660035,19.5184983 71.064,19.8515 C70.3619965,20.1845017 69.5520046,20.351 68.634,20.351 C67.1579926,20.351 65.8890053,19.9190043 64.827,19.055 C63.7649947,18.1549955 63.234,16.7240098 63.234,14.762 L63.234,6.716 L66.123,6.716 L66.123,14.276 C66.123,15.5900066 66.4289969,16.4989975 67.041,17.003 C67.6710032,17.5250026 68.3999959,17.786 69.228,17.786 C69.6960023,17.786 70.132498,17.7095008 70.5375,17.5565 C70.942502,17.4034992 71.3024984,17.1740015 71.6175,16.868 C71.9325016,16.5619985 72.1799991,16.1840022 72.36,15.734 C72.5400009,15.2839978 72.63,14.762003 72.63,14.168 L72.63,6.743 L75.519,6.743 L75.519,17.57 C75.519,17.9300018 75.5414998,18.3484976 75.5865,18.8255 C75.6315002,19.3025024 75.6899996,19.6939985 75.762,20 L72.927,20 Z M91.287,14.492 L80.946,14.492 C81.0540005,15.6260057 81.4634964,16.4719972 82.1745,17.03 C82.8855036,17.5880028 83.7539949,17.867 84.78,17.867 C85.6440043,17.867 86.372997,17.6735019 86.967,17.2865 C87.561003,16.8994981 88.0289983,16.3640034 88.371,15.68 L90.774,16.652 C90.2699975,17.8400059 89.4825054,18.7534968 88.4115,19.3925 C87.3404946,20.0315032 86.1210068,20.351 84.753,20.351 C83.7809951,20.351 82.894504,20.1845017 82.0935,19.8515 C81.292496,19.5184983 80.6040029,19.0460031 80.028,18.434 C79.4519971,17.8219969 79.0065016,17.0885043 78.6915,16.2335 C78.3764984,15.3784957 78.219,14.4290052 78.219,13.385 C78.219,12.3589949 78.3764984,11.4140043 78.6915,10.55 C79.0065016,9.68599568 79.4519971,8.9435031 80.028,8.3225 C80.6040029,7.70149689 81.2969959,7.22000171 82.107,6.878 C82.9170041,6.53599829 83.8169951,6.365 84.807,6.365 C85.7790049,6.365 86.665496,6.53149834 87.4665,6.8645 C88.267504,7.19750167 88.9514972,7.66999694 89.5185,8.282 C90.0855028,8.89400306 90.5219985,9.62749572 90.828,10.4825 C91.1340015,11.3375043 91.287,12.2959947 91.287,13.358 L91.287,14.492 Z M88.371,12.44 C88.2989996,11.233994 87.9480032,10.3205031 87.318,9.6995 C86.6879969,9.0784969 85.8330054,8.768 84.753,8.768 C83.6729946,8.768 82.8045033,9.08299685 82.1475,9.713 C81.4904967,10.3430032 81.0990006,11.2519941 80.973,12.44 L88.371,12.44 Z" id="Avenue"></path>
            </g>
        </g>
    </g>
</svg>